<svg width="270" height="60" viewBox="0 0 270 60" fill="none" xmlns="http://www.w3.org/2000/svg">
<g clip-path="url(#clip0)">
<path d="M18.2617 0H31.3057H32.6101V1.30439L32.0883 8.60899H82.4379H84.2641L83.4814 10.4351L72.7854 38.61L72.5245 39.3927H71.481H28.436H27.1316V38.0883L30.0013 2.60879H18.2617V0ZM31.8274 11.2178L29.7404 36.7839H70.6984L80.3509 11.2178H31.8274Z" fill="white"/>
<path d="M7.04102 13.0439H23.2155V15.6527H7.04102V13.0439Z" fill="white"/>
<path d="M0 22.9573H35.7404V25.5661H0V22.9573Z" fill="white"/>
<path d="M13.041 33.6533H28.6937V36.2621H13.041V33.6533Z" fill="white"/>
<path d="M65.2182 44.3494C68.0879 44.3494 70.1749 46.4364 70.6967 49.5669C70.9575 53.4801 68.6096 57.915 64.9573 59.4803C61.305 61.0456 56.8701 58.9586 56.6092 54.7845C56.6092 51.9148 57.6527 48.7843 59.4789 46.9581H36.7824C37.3042 47.7408 37.5651 48.5234 37.8259 49.5669C38.0868 53.4801 35.7389 57.915 32.0866 59.4803C28.1734 61.0456 24.2602 58.9586 23.7385 54.7845C23.4776 50.8713 25.8255 46.4364 29.4778 44.8711C30.2605 44.6102 31.0431 44.3494 31.8257 44.3494H65.2182ZM30.5213 47.219C27.9125 48.2625 26.0864 51.654 26.3473 54.5236C26.6081 56.8715 28.6952 58.1759 31.0431 57.1324C33.6519 55.828 35.478 52.6975 35.2171 49.8278C34.9563 47.219 32.8692 46.1755 30.5213 47.219ZM63.392 47.219C60.7833 48.2625 58.9571 51.654 59.218 54.5236C59.4789 56.8715 61.5659 58.1759 63.9138 57.1324C66.5226 55.828 68.3487 52.6975 68.0879 49.8278C67.5661 47.219 65.4791 46.1755 63.392 47.219Z" fill="white"/>
<path d="M117.784 16.3302L130.443 45.9082H125.764L122.797 38.5972H108.719L105.794 45.9082H101.115L114.15 16.3302H117.784V16.3302ZM110.139 35.088H121.335L115.821 21.5106H115.737L110.139 35.088ZM137.378 14.325V45.9082H133.618V14.325H137.378ZM145.566 16.2467C146.318 16.2467 146.965 16.5183 147.508 17.0614C148.052 17.6045 148.323 18.252 148.323 19.004C148.323 19.7838 148.045 20.4384 147.488 20.9675C146.931 21.4967 146.29 21.7613 145.566 21.7613C144.786 21.7613 144.132 21.4967 143.602 20.9675C143.073 20.4384 142.809 19.7838 142.809 19.004C142.809 18.2241 143.087 17.5696 143.644 17.0404C144.201 16.5113 144.842 16.2467 145.566 16.2467V16.2467ZM147.446 26.106V45.9082H143.686V26.106H147.446ZM164.992 16.3302C167.861 16.3302 170.123 17.0404 171.781 18.4608C173.438 19.8813 174.266 21.9283 174.266 24.602C174.266 27.1922 173.445 29.2184 171.802 30.6805C170.158 32.1427 167.889 32.8738 164.992 32.8738H158.391V45.9082H154.381V16.3302H164.992ZM163.822 29.3646C165.911 29.3646 167.464 28.9816 168.48 28.2157C169.497 27.4498 170.005 26.2452 170.005 24.602C170.005 21.427 167.944 19.8394 163.822 19.8394H158.391V29.3645H163.822V29.3646ZM187.76 25.6047C190.685 25.6047 193.163 26.6144 195.197 28.6335C197.23 30.6526 198.26 33.1107 198.288 36.0071C198.288 38.9315 197.272 41.3825 195.238 43.3598C193.205 45.3371 190.713 46.3537 187.76 46.4095C184.864 46.4095 182.399 45.4068 180.366 43.4016C178.333 41.3963 177.288 38.9315 177.233 36.0071C177.233 33.1385 178.242 30.7014 180.261 28.6962C182.281 26.6909 184.78 25.6604 187.76 25.6047V25.6047ZM181.243 36.0071C181.243 38.0402 181.842 39.6903 183.04 40.9576C184.237 42.2249 185.811 42.8724 187.76 42.9002C189.738 42.9002 191.311 42.2666 192.481 40.9994C193.651 39.7322 194.25 38.0681 194.278 36.0071C194.278 33.9739 193.693 32.3238 192.523 31.0565C191.353 29.7892 189.752 29.1418 187.719 29.1139C185.741 29.1139 184.168 29.7684 182.998 31.0774C181.828 32.3864 181.243 34.0296 181.243 36.0071H181.243ZM207.061 14.325V45.9082H203.301V14.325H207.061ZM219.72 25.6047C221.224 25.6047 222.567 25.8833 223.751 26.4403C224.935 26.9973 225.847 27.805 226.488 28.8633L223.563 31.0775C222.449 29.7685 221.098 29.114 219.511 29.114C218.564 29.114 217.777 29.3229 217.15 29.7407C216.524 30.1584 216.21 30.6876 216.21 31.3282C216.21 32.7207 217.505 33.6677 220.096 34.169C222.63 34.6424 224.42 35.3387 225.464 36.2578C226.508 37.1769 227.031 38.486 227.031 40.1848C227.031 42.1066 226.3 43.6174 224.837 44.7176C223.375 45.8178 221.419 46.3817 218.968 46.4096C217.129 46.4096 215.619 46.1241 214.435 45.5532C213.251 44.9822 212.228 44.0979 211.364 42.9003L214.205 40.5608C215.709 42.1205 217.311 42.9003 219.009 42.9003C220.124 42.9003 221.07 42.6775 221.85 42.2319C222.63 41.7863 223.02 41.1735 223.02 40.3937C223.02 39.029 221.767 38.082 219.26 37.5529C216.475 36.9959 214.602 36.2509 213.641 35.3178C212.68 34.3848 212.2 33.1803 212.2 31.7041C212.2 29.8659 212.91 28.3969 214.33 27.2967C215.751 26.1965 217.547 25.6326 219.72 25.6047V25.6047ZM235.344 14.325V34.712L243.908 26.106H249.131L239.856 35.1298L249.883 45.9082H244.535L235.344 35.6311V45.9082H231.584V14.325H235.344V14.325ZM261.204 25.6047C263.711 25.6047 265.695 26.1755 267.157 27.3174C268.619 28.4593 269.392 30.0469 269.476 32.0799V42.6912C269.476 43.6939 269.532 44.7662 269.643 45.908H266.301C266.217 45.0168 266.176 44.0142 266.176 42.9001H266.092C265.229 44.1813 264.233 45.0865 263.105 45.6156C261.977 46.1447 260.661 46.4094 259.157 46.4094C257.124 46.4094 255.474 45.8663 254.206 44.7801C252.939 43.6939 252.306 42.2595 252.306 40.4771C252.306 38.2211 253.253 36.5152 255.146 35.3594C257.04 34.2037 259.714 33.6257 263.168 33.6257H265.967V32.9155C265.967 31.5786 265.528 30.5273 264.651 29.7613C263.773 28.9954 262.624 28.6125 261.204 28.6125C260.146 28.6125 259.22 28.7726 258.426 29.0929C257.632 29.4132 256.692 30.0051 255.606 30.8685L253.35 28.529C255.495 26.6351 258.113 25.6604 261.204 25.6046V25.6047ZM256.066 40.1848C256.066 42.3294 257.486 43.4016 260.327 43.4016C262.026 43.4016 263.383 42.8933 264.4 41.8767C265.417 40.8602 265.939 39.391 265.967 37.4693V36.3831H263.836C261.385 36.3831 259.477 36.6964 258.113 37.3231C256.748 37.9497 256.066 38.9036 256.066 40.1848V40.1848Z" fill="white"/>
</g>
<defs>
<clipPath id="clip0">
<rect width="269.644" height="60" fill="white"/>
</clipPath>
</defs>
</svg>
