<svg width="270" height="60" viewBox="0 0 270 60" fill="none" xmlns="http://www.w3.org/2000/svg">
<g clip-path="url(#clip0)">
<path d="M18.2617 0H31.3056H32.61V1.30439L32.0883 8.60899H82.4378H84.264L83.4814 10.4351L72.7853 38.61L72.5245 39.3927H71.4809H28.436H27.1316V38.0883L30.0013 2.60879H18.2617V0ZM31.8274 11.2178L29.7404 36.7839H70.6983L80.3508 11.2178H31.8274Z" fill="#111111"/>
<path d="M7.04297 13.0439H23.2174V15.6527H7.04297V13.0439Z" fill="#111111"/>
<path d="M0 22.9573H35.7404V25.5661H0V22.9573Z" fill="#111111"/>
<path d="M13.043 33.6533H28.6957V36.2621H13.043V33.6533Z" fill="#111111"/>
<path d="M65.2201 44.3494C68.0898 44.3494 70.1768 46.4364 70.6986 49.5669C70.9594 53.4801 68.6115 57.915 64.9592 59.4803C61.3069 61.0456 56.872 58.9586 56.6111 54.7845C56.6111 51.9148 57.6546 48.7843 59.4808 46.9582H36.7844C37.3061 47.7408 37.567 48.5234 37.8279 49.5669C38.0888 53.4801 35.7408 57.915 32.0885 59.4803C28.1754 61.0456 24.2622 58.9586 23.7404 54.7845C23.4796 50.8713 25.8275 46.4364 29.4798 44.8711C30.2624 44.6102 31.045 44.3494 31.8277 44.3494H65.2201ZM30.5233 47.219C27.9145 48.2625 26.0883 51.654 26.3492 54.5236C26.6101 56.8715 28.6971 58.1759 31.045 57.1324C33.6538 55.828 35.48 52.6975 35.2191 49.8278C34.9582 47.219 32.8712 46.1755 30.5233 47.219ZM63.394 47.219C60.7852 48.2625 58.959 51.654 59.2199 54.5236C59.4808 56.8715 61.5678 58.1759 63.9157 57.1324C66.5245 55.828 68.3507 52.6975 68.0898 49.8278C67.568 47.219 65.481 46.1755 63.394 47.219Z" fill="#111111"/>
<path d="M117.786 16.3302L130.444 45.9082H125.765L122.799 38.5973H108.721L105.796 45.9082H101.117L114.152 16.3302H117.786V16.3302ZM110.141 35.088H121.337L115.823 21.5106H115.739L110.141 35.088ZM137.379 14.325V45.9082H133.62V14.325H137.379ZM145.568 16.2467C146.32 16.2467 146.967 16.5183 147.51 17.0614C148.053 17.6045 148.325 18.252 148.325 19.004C148.325 19.7838 148.046 20.4384 147.489 20.9675C146.932 21.4967 146.292 21.7613 145.568 21.7613C144.788 21.7613 144.133 21.4967 143.604 20.9675C143.075 20.4384 142.81 19.7838 142.81 19.004C142.81 18.2241 143.089 17.5696 143.646 17.0404C144.203 16.5113 144.844 16.2467 145.568 16.2467V16.2467ZM147.448 26.106V45.9082H143.688V26.106H147.448ZM164.994 16.3302C167.862 16.3302 170.125 17.0404 171.783 18.4609C173.44 19.8813 174.268 21.9283 174.268 24.602C174.268 27.1922 173.447 29.2184 171.804 30.6806C170.16 32.1427 167.89 32.8738 164.994 32.8738H158.393V45.9082H154.383V16.3302H164.994ZM163.824 29.3646C165.913 29.3646 167.466 28.9816 168.482 28.2157C169.499 27.4498 170.007 26.2452 170.007 24.602C170.007 21.427 167.946 19.8394 163.824 19.8394H158.393V29.3645H163.824V29.3646ZM187.762 25.6047C190.687 25.6047 193.165 26.6144 195.199 28.6335C197.232 30.6526 198.262 33.1107 198.29 36.0071C198.29 38.9315 197.273 41.3825 195.24 43.3598C193.207 45.3371 190.715 46.3537 187.762 46.4095C184.866 46.4095 182.401 45.4069 180.368 43.4016C178.334 41.3963 177.29 38.9315 177.234 36.0071C177.234 33.1385 178.244 30.7014 180.263 28.6962C182.282 26.6909 184.782 25.6605 187.762 25.6047V25.6047ZM181.245 36.0071C181.245 38.0402 181.844 39.6903 183.041 40.9576C184.239 42.2249 185.813 42.8724 187.762 42.9003C189.74 42.9003 191.313 42.2666 192.483 40.9994C193.653 39.7322 194.252 38.0682 194.279 36.0071C194.279 33.9739 193.694 32.3238 192.525 31.0565C191.355 29.7893 189.753 29.1418 187.72 29.1139C185.743 29.1139 184.169 29.7684 183 31.0774C181.83 32.3864 181.245 34.0296 181.245 36.0071H181.245ZM207.063 14.325V45.9082H203.303V14.325H207.063ZM219.721 25.6047C221.225 25.6047 222.569 25.8833 223.753 26.4403C224.937 26.9973 225.849 27.805 226.489 28.8634L223.565 31.0775C222.451 29.7685 221.1 29.114 219.513 29.114C218.566 29.114 217.779 29.3229 217.152 29.7407C216.526 30.1584 216.212 30.6876 216.212 31.3282C216.212 32.7207 217.507 33.6677 220.097 34.169C222.632 34.6425 224.421 35.3388 225.466 36.2578C226.51 37.1769 227.032 38.486 227.032 40.1849C227.032 42.1066 226.301 43.6174 224.839 44.7176C223.377 45.8178 221.42 46.3817 218.969 46.4096C217.131 46.4096 215.62 46.1241 214.437 45.5532C213.253 44.9822 212.229 44.0979 211.366 42.9003L214.207 40.5608C215.711 42.1205 217.312 42.9003 219.011 42.9003C220.125 42.9003 221.072 42.6776 221.852 42.2319C222.632 41.7863 223.022 41.1735 223.022 40.3937C223.022 39.029 221.769 38.082 219.262 37.5529C216.477 36.9959 214.604 36.2509 213.643 35.3178C212.682 34.3848 212.202 33.1803 212.202 31.7041C212.202 29.866 212.912 28.3969 214.332 27.2967C215.753 26.1965 217.549 25.6326 219.721 25.6047V25.6047ZM235.346 14.325V34.712L243.91 26.106H249.132L239.858 35.1298L249.884 45.9082H244.537L235.346 35.6311V45.9082H231.586V14.325H235.346V14.325ZM261.206 25.6047C263.712 25.6047 265.697 26.1755 267.159 27.3174C268.621 28.4593 269.394 30.0469 269.478 32.08V42.6913C269.478 43.6939 269.533 44.7662 269.645 45.9081H266.303C266.219 45.0168 266.177 44.0142 266.177 42.9001H266.094C265.23 44.1813 264.235 45.0865 263.107 45.6156C261.979 46.1447 260.663 46.4094 259.159 46.4094C257.126 46.4094 255.476 45.8663 254.208 44.7801C252.941 43.6939 252.307 42.2595 252.307 40.4771C252.307 38.2211 253.254 36.5152 255.148 35.3594C257.042 34.2037 259.716 33.6257 263.169 33.6257H265.968V32.9155C265.968 31.5786 265.53 30.5273 264.652 29.7613C263.775 28.9954 262.626 28.6125 261.206 28.6125C260.147 28.6125 259.221 28.7726 258.428 29.0929C257.634 29.4132 256.694 30.0051 255.608 30.8685L253.352 28.529C255.496 26.6351 258.114 25.6604 261.206 25.6046V25.6047ZM256.067 40.1848C256.067 42.3294 257.488 43.4016 260.329 43.4016C262.027 43.4016 263.385 42.8933 264.402 41.8767C265.418 40.8602 265.941 39.391 265.968 37.4693V36.3831H263.838C261.387 36.3831 259.479 36.6964 258.114 37.3231C256.749 37.9497 256.067 38.9036 256.067 40.1848V40.1848Z" fill="#111111"/>
</g>
<defs>
<clipPath id="clip0">
<rect width="269.644" height="60" fill="white"/>
</clipPath>
</defs>
</svg>
